<?xml version="1.0" standalone="no"?>
<!DOCTYPE svg PUBLIC "-//W3C//DTD SVG 20010904//EN"
 "http://www.w3.org/TR/2001/REC-SVG-20010904/DTD/svg10.dtd">
<svg version="1.0" xmlns="http://www.w3.org/2000/svg"
 width="520.000000pt" height="520.000000pt" viewBox="0 0 520.000000 520.000000"
 preserveAspectRatio="xMidYMid meet">
<metadata>
Created by potrace 1.11, written by Peter Selinger 2001-2013
</metadata>
<g transform="translate(0.000000,520.000000) scale(0.100000,-0.100000)"
fill="#000000" stroke="none">
<path d="M2410 5194 c-19 -2 -78 -9 -130 -15 -545 -63 -1084 -321 -1489 -713
-423 -411 -688 -941 -772 -1546 -18 -125 -18 -515 0 -640 58 -418 197 -790
422 -1125 421 -628 1070 -1029 1839 -1136 125 -18 515 -18 640 0 579 80 1084
323 1489 715 375 365 637 843 740 1356 37 182 46 283 46 510 0 354 -50 624
-171 937 -339 878 -1122 1499 -2069 1639 -96 14 -472 27 -545 18z m-700 -1519
c41 -9 112 -34 157 -55 73 -34 83 -37 95 -23 19 23 88 53 123 53 50 0 110 -34
136 -76 24 -38 24 -42 24 -289 0 -247 0 -251 -24 -289 -42 -67 -131 -93 -208
-61 -59 25 -71 42 -103 146 -34 108 -57 142 -128 188 -105 67 -274 97 -407 72
-122 -23 -247 -107 -281 -188 -32 -76 -9 -167 58 -229 64 -61 85 -68 507 -160
174 -38 324 -86 394 -128 63 -36 138 -107 181 -169 108 -157 126 -390 42 -564
-170 -353 -775 -484 -1217 -263 l-79 39 -43 -46 c-38 -40 -50 -46 -93 -50 -66
-6 -129 27 -158 82 -19 36 -21 60 -24 245 -2 133 1 219 8 246 21 73 88 124
164 124 78 0 136 -45 162 -124 39 -119 65 -146 204 -210 227 -104 514 -83 697
53 101 74 111 201 23 289 -66 67 -123 86 -441 151 -350 72 -460 118 -591 247
-101 100 -158 240 -158 389 0 158 53 278 175 400 119 119 232 178 404 210 97
19 299 14 401 -10z m1719 -55 c55 -31 81 -78 81 -145 0 -108 -64 -163 -200
-172 l-80 -6 0 -253 0 -254 370 0 370 0 0 254 0 253 -78 6 c-141 9 -202 62
-202 172 0 72 25 117 84 148 39 21 55 22 291 25 276 4 336 -3 386 -46 90 -75
73 -227 -31 -279 -24 -13 -57 -23 -72 -23 l-28 0 0 -685 0 -685 38 0 c131 -1
222 -76 222 -183 0 -82 -69 -151 -163 -162 -29 -4 -176 -5 -327 -3 -262 3
-277 4 -316 25 -59 31 -84 76 -84 148 0 110 61 163 202 172 l78 6 0 253 0 254
-370 0 -370 0 0 -254 0 -253 80 -6 c136 -9 200 -64 200 -172 0 -67 -26 -114
-81 -145 l-44 -25 -320 0 -320 0 -44 25 c-103 59 -109 191 -13 275 28 25 99
45 157 45 l35 0 0 685 0 685 -28 0 c-37 0 -111 39 -135 71 -41 57 -34 159 15
214 51 59 87 65 388 62 262 -2 265 -2 309 -27z"/>
</g>
</svg>
